<svg xmlns="http://www.w3.org/2000/svg" width="56" height="56" viewBox="0 0 56 56" fill="none"><path d="M22.1667 28.0001C22.1667 31.2218 19.555 33.8334 16.3333 33.8334C13.1117 33.8334 10.5 31.2218 10.5 28.0001C10.5 24.7784 13.1117 22.1667 16.3333 22.1667C19.555 22.1667 22.1667 24.7784 22.1667 28.0001Z" stroke="#F6941D" stroke-width="2.5" stroke-linecap="round" stroke-linejoin="round"></path><path d="M33.8332 15.1667L22.1665 23.3334" stroke="#F6941D" stroke-width="2.5" stroke-linecap="round" stroke-linejoin="round"></path><path d="M33.8332 40.8335L22.1665 32.6668" stroke="#F6941D" stroke-width="2.5" stroke-linecap="round" stroke-linejoin="round"></path><path d="M45.4999 43.1666C45.4999 46.3883 42.8883 48.9999 39.6666 48.9999C36.4449 48.9999 33.8333 46.3883 33.8333 43.1666C33.8333 39.9449 36.4449 37.3333 39.6666 37.3333C42.8883 37.3333 45.4999 39.9449 45.4999 43.1666Z" stroke="#F6941D" stroke-width="2.5" stroke-linecap="round" stroke-linejoin="round"></path><path d="M45.4999 12.8333C45.4999 16.055 42.8883 18.6667 39.6666 18.6667C36.4449 18.6667 33.8333 16.055 33.8333 12.8333C33.8333 9.61167 36.4449 7 39.6666 7C42.8883 7 45.4999 9.61167 45.4999 12.8333Z" stroke="#F6941D" stroke-width="2.5" stroke-linecap="round" stroke-linejoin="round"></path></svg>