<svg xmlns="http://www.w3.org/2000/svg" width="56" height="56" viewBox="0 0 56 56" fill="none"><path d="M39.6667 45.5C39.6667 41.634 34.4433 38.5 28 38.5C21.5567 38.5 16.3333 41.634 16.3333 45.5M49 38.5009C49 35.6304 46.1204 33.1635 42 32.0833M7 38.5009C7 35.6304 9.87956 33.1635 14 32.0833M42 22.7176C43.4321 21.4358 44.3333 19.5732 44.3333 17.5C44.3333 13.634 41.1993 10.5 37.3333 10.5C35.5405 10.5 33.9051 11.174 32.6667 12.2824M14 22.7176C12.5679 21.4358 11.6667 19.5732 11.6667 17.5C11.6667 13.634 14.8007 10.5 18.6667 10.5C20.4595 10.5 22.0949 11.174 23.3333 12.2824M28 31.5C24.134 31.5 21 28.366 21 24.5C21 20.634 24.134 17.5 28 17.5C31.866 17.5 35 20.634 35 24.5C35 28.366 31.866 31.5 28 31.5Z" stroke="#F6941E" stroke-width="2.5" stroke-linecap="round" stroke-linejoin="round"></path></svg>